<?xml version="1.0" encoding="utf-8"?>
<!-- Generator: Adobe Illustrator 27.0.0, SVG Export Plug-In . SVG Version: 6.00 Build 0)  -->
<svg version="1.1" id="Layer_1" xmlns="http://www.w3.org/2000/svg" xmlns:xlink="http://www.w3.org/1999/xlink" x="0px" y="0px"
	 viewBox="0 0 512 512" style="enable-background:new 0 0 512 512;" xml:space="preserve">
<style type="text/css">
	.st0{fill:#4056A6;}
	.st1{font-family:'MyriadPro-Regular';}
	.st2{font-size:90px;}
	.st3{fill:#118241;}
	.st4{font-size:86px;}
	.st5{font-size:72px;}
	.st6{font-size:56px;}
	.st7{font-size:54px;}
	.st8{font-size:53px;}
	.st9{font-size:40px;}
	.st10{fill:#0F8140;}
	.st11{font-size:39px;}
	.st12{font-size:30px;}
	.st13{font-size:29px;}
	.st14{font-size:28px;}
	.st15{font-size:26px;}
	.st16{font-size:25px;}
	.st17{font-size:21px;}
	.st18{font-size:20px;}
	.st19{font-size:18px;}
	.st20{font-size:14px;}
</style>
<text transform="matrix(1 0 0 1 41 363)" class="st0 st1 st2">overview</text>
<text transform="matrix(1 0 0 1 12 263)" class="st3 st1 st4">supermassive</text>
<text transform="matrix(1 0 0 1 86 167)" class="st3 st1 st4">general</text>
<text transform="matrix(1 0 0 1 222 435)" class="st3 st1 st4">fuel</text>
<text transform="matrix(1 0 0 1 120 100)" class="st0 st1 st5">snowball</text>
<text transform="matrix(1 0 0 1 77 416)" class="st3 st1 st5">exist</text>
<text transform="matrix(1 0 0 1 362 194)" class="st3 st1 st5">ball</text>
<text transform="matrix(1 0 0 1 176 472)" class="st0 st1 st5">wow</text>
<text transform="matrix(1 0 0 1 332 304)" class="st0 st1 st6">good</text>
<text transform="matrix(1 0 0 1 123 290)" class="st3 st1 st7">space</text>
<text transform="matrix(1 0 0 1 214 196)" class="st0 st1 st8">moon</text>
<text transform="matrix(1 0 0 1 351 408)" class="st0 st1 st8">else</text>
<text transform="matrix(1 0 0 1 175 52)" class="st0 st1 st9">galaxy</text>
<text transform="matrix(1 0 0 1 388 349)" class="st0 st1 st9">milky</text>
<text transform="matrix(1 0 0 1 19 310)" class="st10 st1 st9">need</text>
<text transform="matrix(1 0 0 1 357 429)" class="st10 st1 st9">use</text>
<text transform="matrix(1 0 0 1 26 213)" class="st10 st1 st11">constituent</text>
<text transform="matrix(1 0 0 1 354 134)" class="st10 st1 st12">produce</text>
<text transform="matrix(1 0 0 1 8 286)" class="st10 st1 st12">inside</text>
<text transform="matrix(1 0 0 1 245 498)" class="st10 st1 st12">due</text>
<text transform="matrix(1 0 0 1 321 461)" class="st10 st1 st12">reach</text>
<text transform="matrix(1 0 0 1 153 314)" class="st10 st1 st12">massive</text>
<text transform="matrix(1 0 0 1 253 386)" class="st10 st1 st12">certain</text>
<text transform="matrix(1 0 0 1 444 213)" class="st10 st1 st12">ton</text>
<text transform="matrix(6.123234e-17 -1 1 6.123234e-17 86 188)" class="st10 st1 st12">release</text>
<text transform="matrix(1 0 0 1 238 217)" class="st10 st1 st13">exhibit</text>
<text transform="matrix(1 0 0 1 111 458)" class="st10 st1 st13">basic</text>
<text transform="matrix(1 0 0 1 224 121)" class="st0 st1 st14">become</text>
<text transform="matrix(1 0 0 1 251 282)" class="st10 st1 st15">isotope</text>
<text transform="matrix(1 0 0 1 117 120)" class="st0 st1 st16">molecular</text>
<text transform="matrix(1 0 0 1 387 374)" class="st10 st1 st17">instantly</text>
<text transform="matrix(1 0 0 1 224 25)" class="st10 st1 st18">normally</text>
<text transform="matrix(1 0 0 1 399 103)" class="st10 st1 st18">heat</text>
<text transform="matrix(1 0 0 1 175 487)" class="st0 st1 st18">monitor</text>
<text transform="matrix(1 0 0 1 131 181)" class="st0 st1 st18">computer</text>
<text transform="matrix(1 0 0 1 380 153)" class="st10 st1 st18">affect</text>
<text transform="matrix(1 0 0 1 77 377)" class="st0 st1 st18">notice</text>
<text transform="matrix(1 0 0 1 322 215)" class="st0 st1 st18">wallet</text>
<text transform="matrix(1 0 0 1 306 48)" class="st0 st1 st18">phone</text>
<text transform="matrix(1 0 0 1 136 60)" class="st0 st1 st18">cell</text>
<text transform="matrix(1 0 0 1 114 429)" class="st10 st1 st19">generate</text>
<text transform="matrix(1 0 0 1 25 185)" class="st10 st1 st19">spell</text>
<text transform="matrix(1 0 0 1 277 304)" class="st10 st1 st19">trouble</text>
<text transform="matrix(1 0 0 1 299 485)" class="st0 st1 st19">glue</text>
<text transform="matrix(1 0 0 1 385 317)" class="st10 st1 st19">definition</text>
<text transform="matrix(1 0 0 1 267 315)" class="st0 st1 st20">radioactive</text>
<text transform="matrix(1 0 0 1 454 304)" class="st0 st1 st20">minus</text>
<text transform="matrix(1 0 0 1 104 311)" class="st10 st1 st20">towards</text>
<text transform="matrix(1 0 0 1 332 274)" class="st0 st1 st20">intuitive</text>
<text transform="matrix(1 0 0 1 319 471)" class="st0 st1 st20">visualize</text>
</svg>
