<?xml version="1.0" encoding="utf-8"?>
<!-- Generator: Adobe Illustrator 27.0.0, SVG Export Plug-In . SVG Version: 6.00 Build 0)  -->
<svg version="1.1" id="Layer_1" xmlns="http://www.w3.org/2000/svg" xmlns:xlink="http://www.w3.org/1999/xlink" x="0px" y="0px"
	 viewBox="0 0 512 512" style="enable-background:new 0 0 512 512;" xml:space="preserve">
<style type="text/css">
	.st0{fill:#3F54A5;}
	.st1{font-family:'MyriadPro-Regular';}
	.st2{font-size:90px;}
	.st3{font-size:85px;}
	.st4{fill:#7C9FCE;}
	.st5{font-size:78px;}
	.st6{font-size:75px;}
	.st7{fill:#7999CF;}
	.st8{font-size:69px;}
	.st9{font-size:67px;}
	.st10{font-size:57px;}
	.st11{fill:#5B75B9;}
	.st12{fill:#556EB5;}
	.st13{font-size:52px;}
	.st14{font-size:42px;}
	.st15{fill:#7AA5BB;}
	.st16{font-size:41px;}
	.st17{font-size:36px;}
	.st18{fill:#4056A6;}
	.st19{font-size:26px;}
	.st20{fill:#516AB2;}
	.st21{fill:#7595CC;}
	.st22{font-size:25px;}
	.st23{font-size:19px;}
	.st24{fill:#7D9ED1;}
	.st25{font-size:16px;}
	.st26{fill:#77ABA7;}
	.st27{fill:#7BA3C1;}
</style>
<text transform="matrix(1 0 0 1 205 306)" class="st0 st1 st2">side</text>
<text transform="matrix(1 0 0 1 77 202)" class="st0 st1 st2">magnet</text>
<text transform="matrix(1 0 0 1 35 367)" class="st0 st1 st3">electrostatic</text>
<text transform="matrix(6.123234e-17 -1 1 6.123234e-17 459 236)" class="st4 st1 st5">call</text>
<text transform="matrix(1 0 0 1 103 122)" class="st0 st1 st6">opposite</text>
<text transform="matrix(1 0 0 1 93 408)" class="st7 st1 st6">go</text>
<text transform="matrix(1 0 0 1 182 419)" class="st0 st1 st8">different</text>
<text transform="matrix(1 0 0 1 28 272)" class="st0 st1 st9">repel</text>
<text transform="matrix(1 0 0 1 142 458)" class="st0 st1 st10">magnetic</text>
<text transform="matrix(1 0 0 1 192 62)" class="st0 st1 st10">frame</text>
<text transform="matrix(1 0 0 1 360 304)" class="st11 st1 st10">force</text>
<text transform="matrix(1 0 0 1 379 272)" class="st12 st1 st13">detail</text>
<text transform="matrix(1 0 0 1 100 303)" class="st0 st1 st14">fridge</text>
<text transform="matrix(1 0 0 1 313 234)" class="st0 st1 st14">pole</text>
<text transform="matrix(6.123234e-17 -1 1 6.123234e-17 62 236)" class="st0 st1 st14">part</text>
<text transform="matrix(1 0 0 1 254 153)" class="st0 st1 st14">word</text>
<text transform="matrix(1 0 0 1 17 301)" class="st0 st1 st14">yes</text>
<text transform="matrix(1 0 0 1 52 153)" class="st15 st1 st16">know</text>
<text transform="matrix(1 0 0 1 191 492)" class="st0 st1 st17">connect</text>
<text transform="matrix(1 0 0 1 67 221)" class="st18 st1 st19">multiple</text>
<text transform="matrix(1 0 0 1 215 27)" class="st20 st1 st19">attract</text>
<text transform="matrix(1 0 0 1 366 437)" class="st0 st1 st19">view</text>
<text transform="matrix(1 0 0 1 124 82)" class="st0 st1 st19">reference</text>
<text transform="matrix(1 0 0 1 347 71)" class="st21 st1 st22">lot</text>
<text transform="matrix(1 0 0 1 189 252)" class="st18 st1 st22">back</text>
<text transform="matrix(1 0 0 1 377 124)" class="st18 st1 st22">future</text>
<text transform="matrix(1 0 0 1 250 220)" class="st0 st1 st22">play</text>
<text transform="matrix(6.123234e-17 -1 1 6.123234e-17 477 234)" class="st18 st1 st22">intuition</text>
<text transform="matrix(1 0 0 1 109 455)" class="st18 st1 st22">life</text>
<text transform="matrix(1 0 0 1 209 151)" class="st0 st1 st22">turn</text>
<text transform="matrix(1 0 0 1 228 75)" class="st18 st1 st23">apparent</text>
<text transform="matrix(6.123234e-17 -1 1 6.123234e-17 395 203)" class="st18 st1 st23">everyday</text>
<text transform="matrix(6.123234e-17 -1 1 6.123234e-17 28 278)" class="st18 st1 st23">relativistic</text>
<text transform="matrix(1 0 0 1 246 237)" class="st24 st1 st23">move</text>
<text transform="matrix(1 0 0 1 324 382)" class="st18 st1 st23">wonder</text>
<text transform="matrix(1 0 0 1 98 317)" class="st0 st1 st23">familiar</text>
<text transform="matrix(6.123234e-17 -1 1 6.123234e-17 183 277)" class="st18 st1 st23">repulsive</text>
<text transform="matrix(1 0 0 1 398 97)" class="st18 st1 st23">best</text>
<text transform="matrix(1 0 0 1 35 315)" class="st18 st1 st23">name</text>
<text transform="matrix(1 0 0 1 132 54)" class="st0 st1 st25">probably</text>
<text transform="matrix(1 0 0 1 309 256)" class="st18 st1 st25">attractive</text>
<text transform="matrix(1 0 0 1 147 472)" class="st26 st1 st25">video</text>
<text transform="matrix(1 0 0 1 51 393)" class="st0 st1 st25">mind</text>
<text transform="matrix(1 0 0 1 429 318)" class="st0 st1 st25">negative</text>
<text transform="matrix(1 0 0 1 207 318)" class="st18 st1 st25">magnetism</text>
<text transform="matrix(1 0 0 1 135 428)" class="st18 st1 st25">electric</text>
<text transform="matrix(1 0 0 1 312 471)" class="st18 st1 st25">reality</text>
<text transform="matrix(1 0 0 1 149 154)" class="st27 st1 st25">coulomb</text>
<text transform="matrix(6.123234e-17 -1 1 6.123234e-17 410 230)" class="st18 st1 st25">computer</text>
<text transform="matrix(1 0 0 1 354 448)" class="st18 st1 st25">monitor</text>
</svg>
